<?xml version="1.0" encoding="UTF-8"?>
<svg id="_레이어_2" data-name="레이어 2" xmlns="http://www.w3.org/2000/svg" viewBox="0 0 65.4 65.4">
  <defs>
    <style>
      .cls-1 {
        fill: none;
        stroke: #fff100;
        stroke-miterlimit: 10;
      }

      .cls-2 {
        fill: #fff100;
        fill-rule: evenodd;
      }
    </style>
  </defs>
  <g id="New_Layer" data-name="New Layer">
    <g>
      <path class="cls-2" d="m26.31,26.57c1.56-.69,3.07-1.33,4.57-2,.03.03.03.06.06.06-.92,1.47-1.87,2.94-2.79,4.41,0,.03.03.03.03.06,1.45-.83,2.87-1.64,4.41-2.52-.08.17-.11.25-.14.3-.81,1.47-1.59,2.97-2.4,4.43-.08.14-.17.28-.28.39-2.01,2-4.02,3.99-6.02,6.01-.03.03-.06.06-.17.11-.17-.19-.33-.39-.53-.58-.73-.72-1.45-1.41-2.18-2.11-.17-.17-.36-.28-.59-.36-2.06-.67-4.13-1.3-6.22-1.91-.33-.11-.47-.22-.47-.58-.06-1.11-.17-2.22-.25-3.35,2.37.17,4.69.33,7.08.5-.36-2.44-.7-4.82-1.06-7.26.84-.33,1.67-.69,2.45-1.03.03.28.03.58.11.83.06.14.25.28.39.36.33.14.7-.03.86-.36.22-.42.08-.78-.47-1.19.14-.06.25-.11.39-.17,1.06,2,2.12,3.96,3.21,5.96Zm2.37,3.08c-.73-.28-1.39-.53-2.09-.78-.06.17-.11.33-.2.5.7.25,1.37.5,2.06.78.11-.17.17-.3.22-.5Z"/>
      <path class="cls-2" d="m33.45,26.6c1.51.86,2.93,1.66,4.35,2.49.03,0,.03-.03.06-.03-.95-1.47-1.87-2.97-2.87-4.52,1.62.72,3.15,1.39,4.69,2.05,1.06-2,2.15-3.96,3.21-5.96.14.06.28.11.39.17-.56.44-.7.86-.45,1.27.2.3.59.42.92.28.42-.19.53-.58.33-1.16.11.03.2.06.28.08.64.28,1.28.55,1.95.8.25.08.33.22.31.5-.17,1.05-.33,2.13-.47,3.21-.2,1.22-.36,2.44-.56,3.71,2.34-.17,4.69-.33,7.06-.5-.03.64-.08,1.25-.11,1.86-.03.53-.11,1.08-.11,1.61,0,.28-.11.39-.36.44-2.09.64-4.18,1.27-6.25,1.94-.28.08-.56.25-.78.47-.86.86-1.7,1.75-2.59,2.63-.14-.11-.22-.19-.31-.25-1.95-1.94-3.93-3.88-5.88-5.85-.08-.08-.2-.19-.25-.3-.84-1.55-1.67-3.1-2.48-4.63.03-.14,0-.19-.06-.33Zm6.53,2.27c-.7.25-1.37.53-2.06.78.08.19.14.33.2.5.73-.28,1.39-.53,2.06-.78-.06-.17-.11-.33-.2-.5Z"/>
      <path class="cls-2" d="m30.38,32.53c2.87,2.83,5.77,5.65,8.67,8.54-2.04,2.05-4.02,4.05-6.02,6.07-2.9-2.91-5.77-5.79-8.65-8.65,1.98-1.97,4.02-3.99,6-5.96Z"/>
      <path class="cls-2" d="m41.62,38.51c-.61.64-1.25,1.3-1.95,2-2.01-2.02-4.02-4.05-6.02-6.07.67-.64,1.34-1.27,1.98-1.86,1.98,1.94,3.99,3.94,6,5.93Z"/>
      <path class="cls-2" d="m55.23,22.27c.81-.17,3.6-1.44,4.29-2,.42.86.81,1.72,1.2,2.58.11.25-.25,1.05-.47,1.19-.42.28-.86.33-1.31.06-.06.11-.08.17-.11.25-.11.28-.2.53-.53.69-.59.36-1.12.28-1.65,0-.08-.06-.2-.08-.22-.17-.39-.89-.78-1.75-1.2-2.61Zm2.4.47c-.17.06-.28.11-.39.17-.47.22-.53.44-.14.78.11.11.36.17.47.11.14-.08.28-.28.28-.44,0-.19-.14-.39-.22-.61Zm1.56-.72q-.67.25-.5.61c.11.25.22.53.59.36.31-.14.28-.44-.08-.97Z"/>
      <path class="cls-2" d="m9.08,25.95c-1.39-.78-2.82-1.39-4.32-1.94.08-.22.2-.5.33-.78.22-.53.45-1.03.7-1.52.08-.17.25-.3.42-.39.61-.39,1.23-.36,1.84.03.22.14.47.28.73.33.84.19,1.2.78,1.37,1.52.03.11.03.22,0,.3-.33.83-.7,1.64-1.06,2.44Zm-2.76-2.8c.67.3,1.28.58,1.92.86.39.17.56.08.59-.36.03-.33-.14-.53-.42-.67-.31-.14-.61-.28-.92-.42-.64-.28-.89-.17-1.17.58Z"/>
      <path class="cls-2" d="m40.62,10.46c.53-.75,1.67-3.66,1.76-4.38.75.3,1.48.61,2.23.86.36.14.56.36.73.69.25.53.28.97.03,1.47-.25.5-.42,1.05-.64,1.55-.08.17-.25.33-.42.44-.61.42-1.23.39-1.9.03-.59-.25-1.2-.42-1.78-.67Zm2.73-2.83c-.25.64-.53,1.3-.81,1.97-.2.44-.03.5.36.55.31.06.56-.11.67-.42.14-.33.25-.67.39-1,.28-.61.14-.91-.61-1.11Z"/>
      <path class="cls-2" d="m36.63,4.84c.31.06.64.14.98.17.28.03.39.17.47.39.22.67.47,1.3.75,2.08.11-.8.22-1.47.31-2.19.39.08.84.17,1.2.22-.31,1.55-.61,3.08-.92,4.63-.28-.06-.53-.08-.75-.17-.08-.03-.17-.17-.2-.25-.31-.8-.61-1.61-.89-2.41-.03-.06-.06-.14-.11-.25-.14.91-.28,1.75-.42,2.63-.39-.08-.84-.17-1.26-.22.39-1.52.7-3.05.84-4.63Z"/>
      <path class="cls-2" d="m12.81,19.22c-.03.06-.08.17-.14.28-.2.3-.47.58-.61.91-.31.72-1,.67-1.59.78-.06,0-.17-.06-.22-.11-.7-.47-1.39-.94-2.09-1.47-.17-.11-.2-.39-.28-.61-.22-.53-.08-.97.28-1.36.08-.08.17-.19.22-.3.31-.67.84-.97,1.59-.94.14,0,.31.03.42.11.64.44,1.28.89,1.92,1.33.22.14.36.3.39.58,0,.25.06.5.11.8Zm-1.84.55c.11-.11.33-.25.39-.44.06-.17,0-.44-.11-.55-.45-.36-.92-.67-1.37-.97-.22-.14-.42-.06-.59.11-.17.19-.36.47-.14.64.53.44,1.09.78,1.65,1.16,0,.03.03.03.17.06Z"/>
      <path class="cls-2" d="m27.07,10.07c-.17-.11-.36-.25-.56-.36-.39-.19-.56-.5-.64-.91-.11-.69-.28-1.39-.39-2.11-.03-.14.03-.3.08-.44.28-.67.81-1.03,1.53-1.03.06,0,.11,0,.14-.03.72-.3,1.31-.06,1.84.42.08.08.17.22.2.33.17.8.33,1.64.47,2.47.03.11-.03.28-.08.39-.28.64-.75,1-1.51,1.03-.33.06-.7.17-1.09.25Zm1.23-1.88c-.11-.53-.2-1.05-.33-1.61-.06-.28-.31-.36-.61-.3-.33.06-.5.25-.45.58.08.53.2,1.03.31,1.55.08.3.33.44.64.39.28-.08.47-.25.45-.61Z"/>
      <path class="cls-2" d="m22.44,53.06v2.55h-1.28c.11-1.55.17-3.1-.03-4.68.39,0,.81-.03,1.2,0,.11,0,.22.14.28.22.36.58.73,1.19,1.06,1.8v-2.02h1.31c-.25,1.55-.03,3.1-.14,4.68-.25,0-.5.03-.75,0-.11-.03-.22-.14-.28-.25-.45-.78-.92-1.55-1.37-2.3Z"/>
      <path class="cls-2" d="m56.38,15.62c.25.36.56.78.81,1.11-.86.61-1.7,1.19-2.54,1.8-.25.19-.31.44-.11.72.17.25.45.36.7.17.84-.61,1.76-1.11,2.48-1.94.28.39.59.78.86,1.16-1.12.55-2.06,1.36-3.04,2.08-.08.06-.2.08-.31.08-.31-.03-.61-.08-.92-.14-.11-.03-.2-.11-.28-.22-.22-.28-.39-.61-.64-.86-.56-.53-.28-1.11-.2-1.66,0-.06.08-.11.14-.17.81-.58,1.65-1.14,2.45-1.72.2-.11.36-.25.59-.42Z"/>
      <path class="cls-2" d="m40.84,53.29c0-.3.03-.58,0-.89-.06-.42.11-.72.42-1.03.33-.33.64-.53,1.12-.47.17.03.33.03.47,0,.75-.17,1.14.39,1.56.83.06.06.06.19.06.28v2.55c0,.14-.08.28-.17.39-.39.58-.95.83-1.65.69h-.08c-.75.19-1.23-.25-1.65-.78-.06-.08-.11-.22-.11-.33.03-.42.03-.83.03-1.25Zm2.37-.03v-.8c-.03-.33-.22-.53-.53-.53-.33,0-.56.19-.56.53,0,.53-.03,1.08,0,1.64,0,.33.22.53.56.53.31,0,.53-.19.56-.53,0-.28-.03-.55-.03-.83Z"/>
      <path class="cls-2" d="m33.17,4.67h1.48c-.22,1.22-.06,2.44-.03,3.66,0,.11-.06.22-.11.3-.42.58-.95.89-1.7.75h-.14c-.73.17-1.23-.19-1.65-.72-.06-.08-.11-.17-.11-.25,0-1.05,0-2.08-.03-3.13,0-.17-.08-.36-.14-.58h1.53v2.97c0,.42.2.61.56.58.33,0,.53-.22.53-.61,0-.72,0-1.44-.03-2.16-.03-.25-.11-.5-.17-.8Z"/>
      <path class="cls-2" d="m14.07,12.93c-.36.28-.75.53-1.12.83-.39.36-.39.75,0,1.14.25.28.53.53.78.78.31.3.78.25.95-.17.06-.11,0-.33-.08-.42-.28-.28-.61-.5-.89-.69.33-.33.73-.75,1.14-1.19.11.58.59.86.95,1.25.11.11.17.28.2.42.11.67-.08,1.22-.67,1.61-.03.03-.06.06-.08.08-.42.67-1.09.69-1.76.61-.11,0-.2-.06-.28-.14-.59-.58-1.17-1.16-1.73-1.77-.08-.08-.14-.25-.17-.39q-.03-1.05.73-1.8c.22-.22.42-.44.67-.64.08-.06.22-.11.31-.08.36.19.73.42,1.06.58Z"/>
      <path class="cls-2" d="m16.94,9.24c.36.25.67.5,1,.75-.5.3-1,.58-1.53.89.14.19.25.36.36.55.25-.25.47-.44.75-.69.25.36.5.72.75,1.08-.25.11-.47.22-.7.33-.22.11-.17.28-.03.42s.17.47.47.25c.45-.33.86-.67,1.28-1.03.11.33.22.72.33,1.14.03.06-.03.19-.08.22-.75.53-1.48,1.03-2.23,1.55-.22-.49-2.38-3.57-2.68-3.85,0,0,1.51-1.08,2.29-1.61Z"/>
      <path class="cls-2" d="m30.52,50.93h2.57c.08,0,.2.06.22.14.14.36.25.72.36,1.05-.47-.03-.89-.08-1.34-.08-.5-.03-.5,0-.39.61.31-.03.64-.08.95-.11v1.3c-.22-.03-.45-.08-.67-.11-.25-.03-.36.06-.33.33.03.22-.06.5.31.47.53-.03,1.03-.08,1.59-.11-.11.36-.25.78-.39,1.22h-2.87c.11-1.58.11-3.13,0-4.71Z"/>
      <path class="cls-2" d="m13.76,54.37c.47.06.95.11,1.42.14.28.03.5-.08.53-.39s-.2-.36-.45-.44c-.31-.08-.61-.14-.89-.3-.64-.33-.5-.97-.47-1.52.03-.3.89-.94,1.2-.94h1.31c.2,0,.28.06.33.25.08.33.22.64.31.94-.45-.03-.89-.08-1.34-.08-.17,0-.33.19-.47.28.14.11.25.25.42.33.31.14.64.17.92.33.73.42.5,1.11.5,1.75,0,.3-.89.91-1.2.91h-1.39c-.2,0-.28-.06-.33-.25-.14-.33-.28-.69-.39-1Z"/>
      <path class="cls-2" d="m21.77,10.52c.47-.14.95-.28,1.39-.42.25-.08.39-.25.31-.53-.08-.28-.31-.25-.53-.22-.31.03-.64.08-.95.06-.73-.08-.86-.69-1-1.25-.06-.19.14-.44.22-.69.11-.39.36-.64.78-.75.31-.08.61-.19.89-.33.25-.11.42-.11.59.14.17.25.39.47.56.69-.42.14-.84.25-1.26.36-.25.08-.42.22-.36.47.06.28.31.17.5.14.31-.03.61-.08.92-.06.84.11.95.86,1.14,1.5.11.33-.5,1.19-.84,1.3-.42.17-.84.33-1.28.47-.08.03-.25.03-.31-.03-.31-.25-.56-.58-.78-.86Z"/>
      <path class="cls-2" d="m45.53,52.26v-.14c.14-.39.17-.91.45-1.14.25-.19.75,0,1.14-.08.75-.14,1.12.39,1.53.83.2.19.06,1.22-.14,1.41-.42.42-.84.83-1.26,1.25,0,.03.03.08.03.11.56-.06,1.14-.11,1.73-.17-.11.36-.25.78-.39,1.16-.03.08-.17.14-.25.14-.78,0-1.59.03-2.37,0-.11,0-.28-.17-.36-.28-.31-.53-.28-.53.14-.97.5-.5.98-.97,1.45-1.47.2-.19.31-.42.2-.69-.11-.28-.36-.3-.61-.28-.2.03-.42.06-.61.11-.22.03-.42.11-.67.19Z"/>
      <path class="cls-2" d="m36.41,52.26c.17-.5.31-.91.45-1.33h1.73c.11,0,.28.08.33.17.25.3.67.44.7.94.06.64-.08,1.16-.64,1.58-.31.22-.56.53-.84.78.03.06.03.08.06.14.56-.06,1.12-.11,1.7-.17-.11.36-.25.78-.42,1.16-.03.06-.17.11-.25.14h-2.34c-.28,0-.31-.19-.42-.33-.25-.36-.22-.61.14-.89.5-.42.95-.91,1.39-1.39.08-.08.2-.19.25-.3.22-.42.03-.78-.45-.78-.25,0-.53.06-.78.11-.17,0-.36.08-.61.17Z"/>
      <path class="cls-2" d="m50.24,14.15c-.42.3-.81.58-1.2.86-.47-.33-.95-.67-1.37-1-.11-.11-.14-.3-.22-.47-.25-.69-.06-1.25.42-1.77.33-.36.59-.75.84-1.16.17-.22.36-.33.61-.39.67-.17,1.23-.08,1.7.42.2.19.47.36.73.53-.14.44-.28.86-.45,1.36-.17-.19-.28-.36-.42-.53-.36-.5-1.06-.72-1.51.03-.08.17-.22.3-.33.47-.47.64-.28,1.19.47,1.47.22.06.45.11.73.19Z"/>
      <path class="cls-2" d="m29.49,52.29c-.31-.08-.56-.19-.81-.25-.53-.11-1.12.14-1.06.86.03.22.03.44,0,.67-.08.91.59,1.05,1.26.91.2-.06.39-.14.67-.22-.14.44-.25.83-.42,1.22-.03.06-.17.14-.25.14-.5,0-.98.03-1.48,0-.11,0-.25-.08-.36-.14-.61-.44-.95-1-.81-1.8.06-.28.06-.58,0-.89-.08-.69.11-1.19.67-1.64.22-.17.39-.28.67-.28.39.03.78.03,1.14,0,.2,0,.31.06.36.25.17.42.28.78.42,1.16Z"/>
      <path class="cls-2" d="m50.04,15.76c1.14-.97,2.23-2.08,3.24-3.27.33.33.73.72,1.06,1.11-.98.58-1.65,1.58-2.59,2.41.47.39.92.72,1.37,1.08-.33.17-.7.36-1.09.53-.06.03-.22-.03-.28-.08-.59-.61-1.17-1.22-1.7-1.77Z"/>
      <path class="cls-2" d="m19.76,55.61h-1.48c.14-1.55.11-3.1,0-4.68h1.51c-.17,1.55-.14,3.1-.03,4.68Z"/>
      <path class="cls-2" d="m51.58,55.61h-1.53c.33-1.14.08-2.3.2-3.46-.22,0-.36-.03-.59-.03.2-.39.36-.75.56-1.08.03-.06.14-.11.2-.11h1.06v1.5c0,.55-.03,1.14,0,1.69.03.5.08,1,.11,1.5Z"/>
    </g>
    <circle class="cls-1" cx="32.7" cy="32.7" r="32.2"/>
  </g>
</svg>